<mxfile host="app.diagrams.net" agent="Mozilla/5.0 (Macintosh; Intel Mac OS X 10_15_7) AppleWebKit/537.36 (KHTML, like Gecko) Chrome/138.0.0.0 Safari/537.36" version="28.0.4">
  <diagram id="FghK-bMIeH_G3lHoJL7u" name="Page-1">
    <mxGraphModel dx="976" dy="563" grid="1" gridSize="10" guides="1" tooltips="1" connect="1" arrows="1" fold="1" page="1" pageScale="1" pageWidth="850" pageHeight="1100" math="0" shadow="0">
      <root>
        <mxCell id="0" />
        <mxCell id="1" parent="0" />
        <mxCell id="5dC5vNaCrdYDzWWnNugj-13" style="edgeStyle=orthogonalEdgeStyle;rounded=0;orthogonalLoop=1;jettySize=auto;html=1;exitX=1;exitY=0.5;exitDx=0;exitDy=0;entryX=0;entryY=0.5;entryDx=0;entryDy=0;" edge="1" parent="1" source="5dC5vNaCrdYDzWWnNugj-1" target="5dC5vNaCrdYDzWWnNugj-4">
          <mxGeometry relative="1" as="geometry" />
        </mxCell>
        <mxCell id="5dC5vNaCrdYDzWWnNugj-14" style="edgeStyle=orthogonalEdgeStyle;rounded=0;orthogonalLoop=1;jettySize=auto;html=1;exitX=0.5;exitY=0;exitDx=0;exitDy=0;entryX=0;entryY=0.5;entryDx=0;entryDy=0;" edge="1" parent="1" source="5dC5vNaCrdYDzWWnNugj-1" target="5dC5vNaCrdYDzWWnNugj-3">
          <mxGeometry relative="1" as="geometry" />
        </mxCell>
        <mxCell id="5dC5vNaCrdYDzWWnNugj-15" style="edgeStyle=orthogonalEdgeStyle;rounded=0;orthogonalLoop=1;jettySize=auto;html=1;exitX=0.5;exitY=1;exitDx=0;exitDy=0;entryX=0;entryY=0.5;entryDx=0;entryDy=0;" edge="1" parent="1" source="5dC5vNaCrdYDzWWnNugj-1" target="5dC5vNaCrdYDzWWnNugj-5">
          <mxGeometry relative="1" as="geometry" />
        </mxCell>
        <mxCell id="5dC5vNaCrdYDzWWnNugj-1" value="Data split" style="rounded=1;whiteSpace=wrap;html=1;" vertex="1" parent="1">
          <mxGeometry x="80" y="160" width="80" height="40" as="geometry" />
        </mxCell>
        <mxCell id="5dC5vNaCrdYDzWWnNugj-20" style="edgeStyle=orthogonalEdgeStyle;rounded=0;orthogonalLoop=1;jettySize=auto;html=1;exitX=1;exitY=0.5;exitDx=0;exitDy=0;entryX=0;entryY=0.5;entryDx=0;entryDy=0;" edge="1" parent="1" source="5dC5vNaCrdYDzWWnNugj-2" target="5dC5vNaCrdYDzWWnNugj-8">
          <mxGeometry relative="1" as="geometry" />
        </mxCell>
        <mxCell id="5dC5vNaCrdYDzWWnNugj-2" value="Data scaling" style="rounded=1;whiteSpace=wrap;html=1;" vertex="1" parent="1">
          <mxGeometry x="400" y="160" width="80" height="40" as="geometry" />
        </mxCell>
        <mxCell id="5dC5vNaCrdYDzWWnNugj-16" style="edgeStyle=orthogonalEdgeStyle;rounded=0;orthogonalLoop=1;jettySize=auto;html=1;exitX=1;exitY=0.5;exitDx=0;exitDy=0;" edge="1" parent="1" source="5dC5vNaCrdYDzWWnNugj-3" target="5dC5vNaCrdYDzWWnNugj-6">
          <mxGeometry relative="1" as="geometry" />
        </mxCell>
        <mxCell id="5dC5vNaCrdYDzWWnNugj-3" value="Test data" style="rounded=1;whiteSpace=wrap;html=1;" vertex="1" parent="1">
          <mxGeometry x="240" y="40" width="80" height="40" as="geometry" />
        </mxCell>
        <mxCell id="5dC5vNaCrdYDzWWnNugj-17" style="edgeStyle=orthogonalEdgeStyle;rounded=0;orthogonalLoop=1;jettySize=auto;html=1;exitX=1;exitY=0.5;exitDx=0;exitDy=0;entryX=0;entryY=0.5;entryDx=0;entryDy=0;" edge="1" parent="1" source="5dC5vNaCrdYDzWWnNugj-4" target="5dC5vNaCrdYDzWWnNugj-2">
          <mxGeometry relative="1" as="geometry" />
        </mxCell>
        <mxCell id="5dC5vNaCrdYDzWWnNugj-4" value="Training data" style="rounded=1;whiteSpace=wrap;html=1;" vertex="1" parent="1">
          <mxGeometry x="240" y="160" width="80" height="40" as="geometry" />
        </mxCell>
        <mxCell id="5dC5vNaCrdYDzWWnNugj-18" style="edgeStyle=orthogonalEdgeStyle;rounded=0;orthogonalLoop=1;jettySize=auto;html=1;exitX=1;exitY=0.5;exitDx=0;exitDy=0;entryX=0;entryY=0.5;entryDx=0;entryDy=0;" edge="1" parent="1" source="5dC5vNaCrdYDzWWnNugj-5" target="5dC5vNaCrdYDzWWnNugj-7">
          <mxGeometry relative="1" as="geometry" />
        </mxCell>
        <mxCell id="5dC5vNaCrdYDzWWnNugj-5" value="Validation data" style="rounded=1;whiteSpace=wrap;html=1;" vertex="1" parent="1">
          <mxGeometry x="240" y="280" width="80" height="40" as="geometry" />
        </mxCell>
        <mxCell id="5dC5vNaCrdYDzWWnNugj-24" style="edgeStyle=orthogonalEdgeStyle;rounded=0;orthogonalLoop=1;jettySize=auto;html=1;exitX=1;exitY=0.5;exitDx=0;exitDy=0;entryX=0.5;entryY=0;entryDx=0;entryDy=0;" edge="1" parent="1" source="5dC5vNaCrdYDzWWnNugj-6" target="5dC5vNaCrdYDzWWnNugj-10">
          <mxGeometry relative="1" as="geometry" />
        </mxCell>
        <mxCell id="5dC5vNaCrdYDzWWnNugj-6" value="Data scaling" style="rounded=1;whiteSpace=wrap;html=1;" vertex="1" parent="1">
          <mxGeometry x="400" y="40" width="80" height="40" as="geometry" />
        </mxCell>
        <mxCell id="5dC5vNaCrdYDzWWnNugj-22" style="edgeStyle=orthogonalEdgeStyle;rounded=0;orthogonalLoop=1;jettySize=auto;html=1;exitX=1;exitY=0.5;exitDx=0;exitDy=0;" edge="1" parent="1" source="5dC5vNaCrdYDzWWnNugj-7" target="5dC5vNaCrdYDzWWnNugj-9">
          <mxGeometry relative="1" as="geometry" />
        </mxCell>
        <mxCell id="5dC5vNaCrdYDzWWnNugj-7" value="Data scaling" style="rounded=1;whiteSpace=wrap;html=1;" vertex="1" parent="1">
          <mxGeometry x="400" y="280" width="80" height="40" as="geometry" />
        </mxCell>
        <mxCell id="5dC5vNaCrdYDzWWnNugj-21" style="edgeStyle=orthogonalEdgeStyle;rounded=0;orthogonalLoop=1;jettySize=auto;html=1;exitX=1;exitY=0.5;exitDx=0;exitDy=0;entryX=0;entryY=0.5;entryDx=0;entryDy=0;" edge="1" parent="1" source="5dC5vNaCrdYDzWWnNugj-8" target="5dC5vNaCrdYDzWWnNugj-9">
          <mxGeometry relative="1" as="geometry" />
        </mxCell>
        <mxCell id="5dC5vNaCrdYDzWWnNugj-8" value="Model training" style="rounded=1;whiteSpace=wrap;html=1;" vertex="1" parent="1">
          <mxGeometry x="560" y="160" width="80" height="40" as="geometry" />
        </mxCell>
        <mxCell id="5dC5vNaCrdYDzWWnNugj-23" style="edgeStyle=orthogonalEdgeStyle;rounded=0;orthogonalLoop=1;jettySize=auto;html=1;exitX=1;exitY=0.5;exitDx=0;exitDy=0;entryX=0;entryY=0.5;entryDx=0;entryDy=0;" edge="1" parent="1" source="5dC5vNaCrdYDzWWnNugj-9" target="5dC5vNaCrdYDzWWnNugj-10">
          <mxGeometry relative="1" as="geometry" />
        </mxCell>
        <mxCell id="5dC5vNaCrdYDzWWnNugj-9" value="Hyper parameter tuning" style="rounded=1;whiteSpace=wrap;html=1;" vertex="1" parent="1">
          <mxGeometry x="720" y="160" width="80" height="40" as="geometry" />
        </mxCell>
        <mxCell id="5dC5vNaCrdYDzWWnNugj-27" style="edgeStyle=orthogonalEdgeStyle;rounded=0;orthogonalLoop=1;jettySize=auto;html=1;exitX=1;exitY=0.75;exitDx=0;exitDy=0;entryX=0;entryY=0.75;entryDx=0;entryDy=0;" edge="1" parent="1" source="5dC5vNaCrdYDzWWnNugj-10" target="5dC5vNaCrdYDzWWnNugj-11">
          <mxGeometry relative="1" as="geometry" />
        </mxCell>
        <mxCell id="5dC5vNaCrdYDzWWnNugj-10" value="Model testing" style="rounded=1;whiteSpace=wrap;html=1;" vertex="1" parent="1">
          <mxGeometry x="880" y="160" width="80" height="40" as="geometry" />
        </mxCell>
        <mxCell id="5dC5vNaCrdYDzWWnNugj-25" style="edgeStyle=orthogonalEdgeStyle;rounded=0;orthogonalLoop=1;jettySize=auto;html=1;exitX=0;exitY=0.25;exitDx=0;exitDy=0;entryX=1;entryY=0.25;entryDx=0;entryDy=0;" edge="1" parent="1" source="5dC5vNaCrdYDzWWnNugj-11" target="5dC5vNaCrdYDzWWnNugj-10">
          <mxGeometry relative="1" as="geometry" />
        </mxCell>
        <mxCell id="5dC5vNaCrdYDzWWnNugj-11" value="Model registry" style="rounded=1;whiteSpace=wrap;html=1;" vertex="1" parent="1">
          <mxGeometry x="1040" y="160" width="80" height="40" as="geometry" />
        </mxCell>
        <mxCell id="5dC5vNaCrdYDzWWnNugj-28" value="Production model" style="text;html=1;align=center;verticalAlign=middle;whiteSpace=wrap;rounded=0;" vertex="1" parent="1">
          <mxGeometry x="960" y="140" width="80" height="30" as="geometry" />
        </mxCell>
        <mxCell id="5dC5vNaCrdYDzWWnNugj-29" value="Better model from A/B testing" style="text;html=1;align=center;verticalAlign=middle;whiteSpace=wrap;rounded=0;" vertex="1" parent="1">
          <mxGeometry x="960" y="200" width="80" height="30" as="geometry" />
        </mxCell>
      </root>
    </mxGraphModel>
  </diagram>
</mxfile>
